<svg xmlns="http://www.w3.org/2000/svg" width="314.1" height="137.72" viewBox="0 0 314.1 137.72">
  <path id="União_2" data-name="União 2" d="M218.07,136.02a43.917,43.917,0,0,1-4.1-1.7,40.809,40.809,0,0,0-4.68-1.84c-.186-.053-.36-.107-.519-.16a3.647,3.647,0,0,0-.44-.12,9.916,9.916,0,0,1-1.64.44,9.452,9.452,0,0,1-1.68.16,3.718,3.718,0,0,1-1.32-.2q-.52-.2-.52-.6,0-.841,2.16-.841a15.348,15.348,0,0,1,3,.32,15.076,15.076,0,0,0,2.48-.9q.986-.474,2.025-.894a12.12,12.12,0,0,1-5.124-1.646,11.5,11.5,0,0,1-4.44-4.961,19.795,19.795,0,0,1,.059-15.639,12.86,12.86,0,0,1,4.5-5.241,11.711,11.711,0,0,1,6.58-1.879,12.67,12.67,0,0,1,6.66,1.72,11.523,11.523,0,0,1,4.441,4.94,17.624,17.624,0,0,1,1.579,7.819,17.863,17.863,0,0,1-1.62,7.841,12.66,12.66,0,0,1-4.5,5.24,11.521,11.521,0,0,1-5.321,1.822v.017a8.033,8.033,0,0,0-2.08.46q-.88.34-1.76.741a16.624,16.624,0,0,1-2.08.76q2,.4,4.361.84t4.559.76a26.743,26.743,0,0,0,3.76.32,10.179,10.179,0,0,0,4.54-.84,5.62,5.62,0,0,0,2.54-2.64l.6.239a13.119,13.119,0,0,1-1.1,2.74,7.123,7.123,0,0,1-1.419,1.82,7.575,7.575,0,0,1-2.06,1.24,8.508,8.508,0,0,1-3.34.56A12.2,12.2,0,0,1,218.07,136.02Zm-8.34-33.179a11.777,11.777,0,0,0-2.98,4.96,23.018,23.018,0,0,0-1.06,7.32,20.932,20.932,0,0,0,1.181,7.38,11.4,11.4,0,0,0,3.2,4.84,6.769,6.769,0,0,0,4.46,1.7,6.393,6.393,0,0,0,4.52-1.8,11.78,11.78,0,0,0,2.98-4.981,23.063,23.063,0,0,0,1.06-7.3,20.915,20.915,0,0,0-1.18-7.4,11.51,11.51,0,0,0-3.181-4.82,6.74,6.74,0,0,0-4.479-1.7A6.392,6.392,0,0,0,209.73,102.84ZM255.31,129.3a7.035,7.035,0,0,1-3.06-1.7,9.5,9.5,0,0,1-1.82-2.361,8.956,8.956,0,0,1-.9-3.039,35.168,35.168,0,0,1-.24-4.521V105.12a7.24,7.24,0,0,0-.24-2.18,1.5,1.5,0,0,0-.94-.96,6.79,6.79,0,0,0-2.06-.3v-.8q.84.039,2.2.08t2.921.04q1.4,0,2.78-.04t2.3-.08v.8a6.79,6.79,0,0,0-2.06.3,1.5,1.5,0,0,0-.94.96,7.24,7.24,0,0,0-.24,2.18v13.24a28.944,28.944,0,0,0,.4,5,6.672,6.672,0,0,0,1.74,3.64,5.653,5.653,0,0,0,4.18,1.36,7.308,7.308,0,0,0,4.7-1.34,7.025,7.025,0,0,0,2.319-3.7,19.753,19.753,0,0,0,.661-5.32V105.52a6.029,6.029,0,0,0-.34-2.28,2.157,2.157,0,0,0-1.14-1.16,5.751,5.751,0,0,0-2.16-.4v-.8q.721.039,1.9.08t2.181.04q1.039,0,2.06-.04t1.66-.08v.8a4.954,4.954,0,0,0-2.06.4,1.834,1.834,0,0,0-.94,1.16,8.34,8.34,0,0,0-.24,2.28v12.04a28.927,28.927,0,0,1-.36,4.88,10.288,10.288,0,0,1-1.28,3.6,7.254,7.254,0,0,1-2.92,2.7,9.231,9.231,0,0,1-4.4,1.021A14.29,14.29,0,0,1,255.31,129.3Zm-158.76,0a7.035,7.035,0,0,1-3.06-1.7,9.477,9.477,0,0,1-1.82-2.361,8.956,8.956,0,0,1-.9-3.039,35.169,35.169,0,0,1-.24-4.521V105.12a7.24,7.24,0,0,0-.24-2.18,1.5,1.5,0,0,0-.94-.96,6.79,6.79,0,0,0-2.06-.3v-.8q.84.039,2.2.08t2.921.04q1.4,0,2.78-.04t2.3-.08v.8a6.79,6.79,0,0,0-2.06.3,1.5,1.5,0,0,0-.94.96,7.24,7.24,0,0,0-.24,2.18v13.24a28.945,28.945,0,0,0,.4,5A6.672,6.672,0,0,0,96.39,127a5.653,5.653,0,0,0,4.18,1.36,7.308,7.308,0,0,0,4.7-1.34,7.025,7.025,0,0,0,2.319-3.7,19.752,19.752,0,0,0,.661-5.32V105.52a6.029,6.029,0,0,0-.34-2.28,2.157,2.157,0,0,0-1.14-1.16,5.751,5.751,0,0,0-2.16-.4v-.8q.721.039,1.9.08t2.181.04q1.04,0,2.06-.04t1.66-.08v.8a4.954,4.954,0,0,0-2.06.4,1.834,1.834,0,0,0-.94,1.16,8.341,8.341,0,0,0-.24,2.28v12.04a28.927,28.927,0,0,1-.36,4.88,10.288,10.288,0,0,1-1.28,3.6,7.254,7.254,0,0,1-2.921,2.7,9.231,9.231,0,0,1-4.4,1.021A14.291,14.291,0,0,1,96.55,129.3Zm-47.6-1.26a11.5,11.5,0,0,1-4.44-4.961,19.795,19.795,0,0,1,.059-15.639,12.86,12.86,0,0,1,4.5-5.241,11.711,11.711,0,0,1,6.58-1.879,12.67,12.67,0,0,1,6.66,1.72,11.523,11.523,0,0,1,4.441,4.94A17.624,17.624,0,0,1,68.33,114.8a17.863,17.863,0,0,1-1.62,7.841,12.66,12.66,0,0,1-4.5,5.24,11.807,11.807,0,0,1-6.6,1.88A12.67,12.67,0,0,1,48.95,128.04Zm2.02-25.2a11.777,11.777,0,0,0-2.98,4.96,23.018,23.018,0,0,0-1.06,7.32,20.932,20.932,0,0,0,1.181,7.38,11.4,11.4,0,0,0,3.2,4.84,6.769,6.769,0,0,0,4.46,1.7,6.393,6.393,0,0,0,4.52-1.8,11.78,11.78,0,0,0,2.98-4.981,23.063,23.063,0,0,0,1.06-7.3,20.915,20.915,0,0,0-1.18-7.4,11.51,11.51,0,0,0-3.181-4.82,6.74,6.74,0,0,0-4.479-1.7A6.392,6.392,0,0,0,50.97,102.84ZM306.09,129.1q-2.56-.019-4.56-.02h-3.18q-1.98,0-4.22.02t-4.2.1v-.8a8.233,8.233,0,0,0,2.06-.32,1.441,1.441,0,0,0,.94-.96,7.275,7.275,0,0,0,.239-2.16V105.12a7.247,7.247,0,0,0-.239-2.18,1.5,1.5,0,0,0-.94-.96,6.781,6.781,0,0,0-2.06-.3v-.8q1.96.039,4.2.08t4.22.04h3.18q1.84,0,4.181-.02t4.18-.1q-.159,1.4-.22,2.72t-.06,2q0,.721.041,1.381t.079,1.1h-.92a19.2,19.2,0,0,0-.68-3.74,3.23,3.23,0,0,0-1.5-1.96,6.828,6.828,0,0,0-3.18-.58h-3.32a7.326,7.326,0,0,0-2.06.22,1.385,1.385,0,0,0-.94.921,7.276,7.276,0,0,0-.239,2.18v9.44h2.64a2.91,2.91,0,0,0,2.46-.92,4.752,4.752,0,0,0,.9-2.16q.2-1.241.36-2.2h.921q-.161,2.28-.14,3.48t.02,2.2q0,1,.04,2.2t.2,3.479h-.92q-.161-1.28-.38-2.5a3.814,3.814,0,0,0-.96-2,3.344,3.344,0,0,0-2.5-.779h-2.64v9.6a7.305,7.305,0,0,0,.239,2.16,1.386,1.386,0,0,0,.94.94,7.292,7.292,0,0,0,2.06.22h2.92a8.482,8.482,0,0,0,3.82-.68,3.965,3.965,0,0,0,1.88-2.22,17.5,17.5,0,0,0,.859-4.18h.92a27.3,27.3,0,0,0-.12,2.88q0,.76.06,2.18t.22,2.939Q308.65,129.12,306.09,129.1Zm-126.18,0q-1.38-.019-2.78-.02-1.559,0-2.92.02t-2.2.1v-.8a8.233,8.233,0,0,0,2.06-.32,1.441,1.441,0,0,0,.941-.96,7.305,7.305,0,0,0,.239-2.16V105.12a7.276,7.276,0,0,0-.239-2.18,1.5,1.5,0,0,0-.941-.96,6.781,6.781,0,0,0-2.06-.3v-.8q.84.039,2.2.08t2.92.04q1.4,0,2.78-.04t2.3-.08v.8a6.781,6.781,0,0,0-2.06.3,1.5,1.5,0,0,0-.94.96,7.246,7.246,0,0,0-.239,2.18v19.84a7.275,7.275,0,0,0,.239,2.16,1.441,1.441,0,0,0,.94.96,8.233,8.233,0,0,0,2.06.32v.8Q181.29,129.12,179.91,129.1Zm-34.74,0q-1.6-.019-3.24-.02-1.8,0-3.38.02t-2.54.1v-.8a10.656,10.656,0,0,0,2.561-.36,1.748,1.748,0,0,0,1.18-1.08,7.252,7.252,0,0,0,.3-2.4V101.8h-2.16a7.466,7.466,0,0,0-3.7.72,3.841,3.841,0,0,0-1.7,2.34,25,25,0,0,0-.76,4.42h-.921a14.769,14.769,0,0,0,.1-1.48q.019-.841.02-1.8,0-.76-.06-2.181t-.22-2.939q1.679.039,3.659.08t3.981.04h7.259q1.98,0,3.98-.04t3.641-.08q-.161,1.52-.221,2.939T152.89,106q0,.96.04,1.8t.08,1.48h-.92a24.983,24.983,0,0,0-.76-4.42,3.863,3.863,0,0,0-1.679-2.34,7.451,7.451,0,0,0-3.721-.72h-2.16v22.76a7.248,7.248,0,0,0,.3,2.4,1.748,1.748,0,0,0,1.18,1.08,10.655,10.655,0,0,0,2.56.36v.8Q146.77,129.12,145.17,129.1Zm-134.4.04q-1.76-.061-4.24-.06-1.4,0-2.76.02t-2.2.1v-.8a8.233,8.233,0,0,0,2.06-.32,1.441,1.441,0,0,0,.94-.96,7.275,7.275,0,0,0,.239-2.16V105.12a7.246,7.246,0,0,0-.239-2.18,1.5,1.5,0,0,0-.94-.96,6.781,6.781,0,0,0-2.06-.3v-.8q.841.039,2.2.08t2.68.04q1.879,0,3.6-.04t2.44-.041q4.2,0,6.32,1.76a5.612,5.612,0,0,1,2.12,4.52,6.827,6.827,0,0,1-.58,2.74,6.553,6.553,0,0,1-1.92,2.441,10.334,10.334,0,0,1-3.58,1.779v.08a12.446,12.446,0,0,1,4.94,1.5,6.4,6.4,0,0,1,2.5,2.58,7.3,7.3,0,0,1-1.821,8.7,10.5,10.5,0,0,1-7.06,2.18Q12.53,129.2,10.77,129.14ZM8.53,124.96a4.246,4.246,0,0,0,.58,2.7,3.383,3.383,0,0,0,2.42.62q3.92,0,5.7-1.82a7.1,7.1,0,0,0,1.78-5.179,6.485,6.485,0,0,0-1.66-4.76q-1.661-1.681-5.46-1.68H8.53Zm2.68-10.8a6.27,6.27,0,0,0,3.64-.9,4.554,4.554,0,0,0,1.76-2.4,10.523,10.523,0,0,0,.48-3.22,6.645,6.645,0,0,0-1.3-4.46q-1.3-1.5-4.3-1.5a3.105,3.105,0,0,0-2.4.68,4.668,4.668,0,0,0-.56,2.76v9.04ZM286.8,78.85a16.766,16.766,0,0,1-4.2-1.75q-1.6-.8-2.75-1.25a6.134,6.134,0,0,0-2.25-.45,2.022,2.022,0,0,0-1.7,1.049,8.7,8.7,0,0,0-1.1,2.451h-2q.2-3.2.3-7.8t.1-12.2h2a33.474,33.474,0,0,0,2.35,9.4,17.157,17.157,0,0,0,4.5,6.45A9.488,9.488,0,0,0,288.4,77.1a6.445,6.445,0,0,0,4.05-1.35,4.91,4.91,0,0,0,1.75-4.15,10.776,10.776,0,0,0-2.65-7.4,83.418,83.418,0,0,0-6.649-6.6q-3-2.8-5.65-5.45a24.949,24.949,0,0,1-4.351-5.8,14.606,14.606,0,0,1-1.7-7.05,11.68,11.68,0,0,1,2.65-7.7,17.279,17.279,0,0,1,6.95-4.95A24.175,24.175,0,0,1,292,24.9a28.5,28.5,0,0,1,7.751.949A26.529,26.529,0,0,1,304.6,27.6q3.5,2.1,4.3-2.6h2q-.2,2.9-.3,7.05T310.5,43h-2a29.885,29.885,0,0,0-1.751-7.3,15.621,15.621,0,0,0-3.9-6,9.308,9.308,0,0,0-6.65-2.4,6.122,6.122,0,0,0-4.2,1.5,5.188,5.188,0,0,0-1.7,4.1,8.562,8.562,0,0,0,1.8,5.35,24.636,24.636,0,0,0,4.6,4.5q2.8,2.151,5.6,4.549a54.858,54.858,0,0,1,7.7,7.4,14.285,14.285,0,0,1,3.1,9.5,12.594,12.594,0,0,1-2.75,8,18.168,18.168,0,0,1-7.3,5.45A25.52,25.52,0,0,1,292.9,79.6,22.106,22.106,0,0,1,286.8,78.85ZM17.9,75.3A31.213,31.213,0,0,1,4.7,62.9Q0,54.8,0,43.4A38.5,38.5,0,0,1,4.85,23.8,34.3,34.3,0,0,1,18.2,10.7,39.835,39.835,0,0,1,37.8,6,26.124,26.124,0,0,1,48.65,7.95,37.216,37.216,0,0,1,56.2,12.5q2,1.5,3.05.35T60.7,7.4H63q-.2,4-.3,9.75T62.6,32.4H60.3A57.29,57.29,0,0,0,59,23.85a22.461,22.461,0,0,0-2.7-6.65,16.561,16.561,0,0,0-5.2-5.1A19.1,19.1,0,0,0,46.65,9.9a14.935,14.935,0,0,0-4.85-.8,14,14,0,0,0-9.4,3.15,20.823,20.823,0,0,0-5.75,8.2,45.162,45.162,0,0,0-2.85,11,83.862,83.862,0,0,0,0,23.1,45.151,45.151,0,0,0,2.85,11,20.823,20.823,0,0,0,5.75,8.2,13.99,13.99,0,0,0,9.4,3.15,14.141,14.141,0,0,0,4.85-.85A23.855,23.855,0,0,0,51.1,73.9a15.357,15.357,0,0,0,6.75-8.3A58.641,58.641,0,0,0,60.3,52.2h2.3q0,9.8.1,15.85T63,78.2H60.7q-.4-4.3-1.35-5.4t-3.15.3a52.34,52.34,0,0,1-7.85,4.55A25.13,25.13,0,0,1,37.7,79.6,43.314,43.314,0,0,1,17.9,75.3Zm208,2.65q-4-.15-8.2-.15t-8.5.15q-4.3.15-6.5.25V76.1q3.1,0,4.351-1.5t1.249-5.7V37.3q0-4.6-1.149-6.75T202.7,28.4V26.3q3.2.3,6.2.3,5,0,9.35-.349a76.654,76.654,0,0,0,8.05-1.05V68.9q0,4.2,1.25,5.7t4.351,1.5v2.1Q229.9,78.1,225.9,77.95ZM169.95,78q-5.949-.1-12.45-.1-6.2,0-11.7.1t-8.9.2v-2a30.805,30.805,0,0,0,7-.6,4.453,4.453,0,0,0,3.25-2.6,16.477,16.477,0,0,0,.85-6.1V9.7h-.1a13.735,13.735,0,0,0-7.249,2.25,21.806,21.806,0,0,0-6.85,7.6q-3.2,5.35-5.6,14.85h-2.3a26.063,26.063,0,0,0,.25-3.2q.05-1.9.049-4,0-2.9-.149-8.4T125.5,7.4q4.8.1,10.6.2t11.6.1h21q5.8,0,11.6-.1t10.5-.2q-.4,5.9-.55,11.4t-.15,8.4q0,2.1.1,4t.2,3.2h-2.3q-2.3-9.4-5.55-14.8a22.129,22.129,0,0,0-6.9-7.65A13.738,13.738,0,0,0,168.4,9.7h-.1V66.9a16.5,16.5,0,0,0,.85,6.1,4.455,4.455,0,0,0,3.251,2.6,30.8,30.8,0,0,0,7,.6v2Q175.9,78.1,169.95,78Zm-64.5-.05q-4.551-.05-9.25-.05-5.5,0-10.15.05t-7.65.25v-2a16.015,16.015,0,0,0,4.6-.8A3.364,3.364,0,0,0,85,73a21.631,21.631,0,0,0,.5-5.4V18a21.552,21.552,0,0,0-.5-5.45,3.477,3.477,0,0,0-2.049-2.4A13.458,13.458,0,0,0,78.4,9.4v-2q3,.1,7.65.2t10.15.1q4.7,0,9.25-.1t7.449-.2v2a13.314,13.314,0,0,0-4.6.751,3.493,3.493,0,0,0-2,2.4,21.6,21.6,0,0,0-.5,5.45V67.6a21.683,21.683,0,0,0,.5,5.4,3.352,3.352,0,0,0,2.05,2.4,16.308,16.308,0,0,0,4.549.8v2Q110,78,105.45,77.95ZM251.5,31.4a48.093,48.093,0,0,0-3.45-7.45,54.492,54.492,0,0,1-2.85-5.4,12.68,12.68,0,0,1-1.1-5.25,7.7,7.7,0,0,1,2.35-5.9A8.755,8.755,0,0,1,258,7.35a7.62,7.62,0,0,1,2.3,5.85,12.322,12.322,0,0,1-1.1,5.2q-1.1,2.4-2.8,5.351a55.053,55.053,0,0,0-3.5,7.65ZM208.65,15.05A7.565,7.565,0,0,1,205.8,8.6,7.565,7.565,0,0,1,208.65,2.15Q211.5,0,216.7,0t8.05,2.15A7.565,7.565,0,0,1,227.6,8.6a7.566,7.566,0,0,1-2.85,6.45Q221.9,17.2,216.7,17.2T208.65,15.05Z" transform="translate(0.5 0.5)" fill="#e7e9e6" stroke="rgba(0,0,0,0)" stroke-miterlimit="10" stroke-width="1"/>
</svg>
